HIERARCHY
ROOT Hips
{
	OFFSET 0.000000 83.214638 0.000000
	CHANNELS 6 Xposition Yposition Zposition Xrotation Yrotation Zrotation
	JOINT Pelvis
	{
		OFFSET 0.000000 0.000000 0.000000
		CHANNELS 3 Xrotation Yrotation Zrotation
		JOINT LeftUpLeg
		{
			OFFSET 8.479700 -4.795502 -0.379100
			CHANNELS 3 Xrotation Yrotation Zrotation
			JOINT LeftLeg
			{
				OFFSET 0.024144 -32.555107 0.112900
				CHANNELS 3 Xrotation Yrotation Zrotation
				JOINT LeftFoot
				{
					OFFSET -0.024144 -32.638630 -3.012600
					CHANNELS 3 Xrotation Yrotation Zrotation
					JOINT LeftToeBase
					{
						OFFSET 0.970200 -13.225400 11.864200
						CHANNELS 3 Xrotation Yrotation Zrotation
						End Site
						{
							OFFSET 0.000000 12.319262 0.000000
						}
					}
					JOINT LFootTongue
					{
						OFFSET 1.142400 -1.059800 6.665200
						CHANNELS 3 Xrotation Yrotation Zrotation
						End Site
						{
							OFFSET 0.000000 12.319262 0.000000
						}
					}
				}
				JOINT LeftPantLeg
				{
					OFFSET 0.918482 -16.533964 -2.284700
					CHANNELS 3 Xrotation Yrotation Zrotation
					End Site
					{
						OFFSET 0.350399 24.744368 0.000000
					}
				}
			}
		}
		JOINT RightUpLeg
		{
			OFFSET -8.479700 -4.795502 -0.379100
			CHANNELS 3 Xrotation Yrotation Zrotation
			JOINT RightLeg
			{
				OFFSET -0.023144 -32.555092 0.112900
				CHANNELS 3 Xrotation Yrotation Zrotation
				JOINT RightFoot
				{
					OFFSET 0.023144 -32.638641 -3.012700
					CHANNELS 3 Xrotation Yrotation Zrotation
					JOINT RightToeBase
					{
						OFFSET -0.970200 -13.225400 11.864200
						CHANNELS 3 Xrotation Yrotation Zrotation
						End Site
						{
							OFFSET 0.000000 12.319244 0.000000
						}
					}
					JOINT RFootTongue
					{
						OFFSET -1.142200 -1.059800 6.665200
						CHANNELS 3 Xrotation Yrotation Zrotation
						End Site
						{
							OFFSET 0.000000 12.319243 0.000000
						}
					}
				}
				JOINT RightPantLeg
				{
					OFFSET -0.919482 -16.533978 -2.284800
					CHANNELS 3 Xrotation Yrotation Zrotation
					End Site
					{
						OFFSET -0.350400 24.744419 0.000000
					}
				}
			}
		}
	}
	JOINT Spine
	{
		OFFSET 0.000000 7.722000 1.166200
		CHANNELS 3 Xrotation Yrotation Zrotation
		JOINT Spine1
		{
			OFFSET 0.000000 12.024101 0.248800
			CHANNELS 3 Xrotation Yrotation Zrotation
			JOINT Spine2
			{
				OFFSET 0.000000 11.502998 -0.491200
				CHANNELS 3 Xrotation Yrotation Zrotation
				JOINT Neck
				{
					OFFSET 0.000000 18.430702 -3.123100
					CHANNELS 3 Xrotation Yrotation Zrotation
					JOINT Head
					{
						OFFSET 0.000000 9.051102 1.034000
						CHANNELS 3 Xrotation Yrotation Zrotation
						JOINT HairB
						{
							OFFSET 0.208400 24.786102 24.822300
							CHANNELS 3 Xrotation Yrotation Zrotation
							End Site
							{
								OFFSET 0.000000 32.263779 0.000000
							}
						}
						JOINT HairA
						{
							OFFSET -7.081100 24.428299 23.196600
							CHANNELS 3 Xrotation Yrotation Zrotation
							End Site
							{
								OFFSET 0.000000 32.263779 0.000000
							}
						}
						JOINT Hat
						{
							OFFSET 16.728800 15.048294 -15.439601
							CHANNELS 3 Xrotation Yrotation Zrotation
							End Site
							{
								OFFSET 0.000000 32.263779 0.000000
							}
						}
					}
				}
				JOINT LeftShoulder
				{
					OFFSET 6.197800 13.665199 -4.064700
					CHANNELS 3 Xrotation Yrotation Zrotation
					JOINT LeftArm
					{
						OFFSET 7.778100 -0.187103 -1.709300
						CHANNELS 3 Xrotation Yrotation Zrotation
						JOINT LeftForeArm
						{
							OFFSET 22.049376 0.000000 0.000000
							CHANNELS 3 Xrotation Yrotation Zrotation
							JOINT LeftHand
							{
								OFFSET 23.009392 0.000000 0.000000
								CHANNELS 3 Xrotation Yrotation Zrotation
								JOINT LeftHandThumb1
								{
									OFFSET 3.507191 -2.063065 3.133727
									CHANNELS 3 Xrotation Yrotation Zrotation
									JOINT LeftHandThumb2
									{
										OFFSET 3.101337 -1.790558 1.790558
										CHANNELS 3 Xrotation Yrotation Zrotation
										JOINT LeftHandThumb3
										{
											OFFSET 3.058640 -1.765907 1.765906
											CHANNELS 3 Xrotation Yrotation Zrotation
											End Site
											{
												OFFSET -0.415260 3.926476 -0.049563
											}
										}
									}
								}
								JOINT LeftHandIndex1
								{
									OFFSET 11.334419 -0.901459 3.706815
									CHANNELS 3 Xrotation Yrotation Zrotation
									JOINT LeftHandIndex2
									{
										OFFSET 3.283112 0.000000 0.000000
										CHANNELS 3 Xrotation Yrotation Zrotation
										JOINT LeftHandIndex3
										{
											OFFSET 3.323853 0.000000 0.000000
											CHANNELS 3 Xrotation Yrotation Zrotation
											End Site
											{
												OFFSET -1.135597 3.097809 0.402452
											}
										}
									}
								}
								JOINT LeftHandMiddle1
								{
									OFFSET 11.335861 0.000000 0.000000
									CHANNELS 3 Xrotation Yrotation Zrotation
									JOINT LeftHandMiddle2
									{
										OFFSET 3.410492 0.000000 0.000000
										CHANNELS 3 Xrotation Yrotation Zrotation
										JOINT LeftHandMiddle3
										{
											OFFSET 3.312172 0.000000 0.000000
											CHANNELS 3 Xrotation Yrotation Zrotation
											End Site
											{
												OFFSET -1.150200 3.080154 0.400270
											}
										}
									}
								}
								JOINT LeftHandRing1
								{
									OFFSET 11.514786 -0.013176 -3.003090
									CHANNELS 3 Xrotation Yrotation Zrotation
									JOINT LeftHandRing2
									{
										OFFSET 3.053307 0.000000 0.000000
										CHANNELS 3 Xrotation Yrotation Zrotation
										JOINT LeftHandRing3
										{
											OFFSET 3.295807 0.000000 0.000000
											CHANNELS 3 Xrotation Yrotation Zrotation
											End Site
											{
												OFFSET -1.281006 3.013344 0.375733
											}
										}
									}
								}
								JOINT LeftHandPinky1
								{
									OFFSET 10.518692 -0.960396 -5.730441
									CHANNELS 3 Xrotation Yrotation Zrotation
									JOINT LeftHandPinky2
									{
										OFFSET 2.861649 0.000000 0.000000
										CHANNELS 3 Xrotation Yrotation Zrotation
										JOINT LeftHandPinky3
										{
											OFFSET 2.863380 0.000000 0.000000
											CHANNELS 3 Xrotation Yrotation Zrotation
											End Site
											{
												OFFSET -0.843597 2.711159 0.369971
											}
										}
									}
								}
							}
							JOINT LSleeve
							{
								OFFSET 6.676277 -0.344902 -1.011730
								CHANNELS 3 Xrotation Yrotation Zrotation
								End Site
								{
									OFFSET 0.000000 14.885353 0.000000
								}
							}
						}
					}
				}
				JOINT RightShoulder
				{
					OFFSET -6.197800 13.665199 -4.064700
					CHANNELS 3 Xrotation Yrotation Zrotation
					JOINT RightArm
					{
						OFFSET -7.778100 -0.187103 -1.709300
						CHANNELS 3 Xrotation Yrotation Zrotation
						JOINT RightForeArm
						{
							OFFSET -22.049376 0.000000 0.000000
							CHANNELS 3 Xrotation Yrotation Zrotation
							JOINT RightHand
							{
								OFFSET -23.009392 0.000000 0.000000
								CHANNELS 3 Xrotation Yrotation Zrotation
								JOINT RightHandThumb1
								{
									OFFSET -3.507191 -2.063065 3.133727
									CHANNELS 3 Xrotation Yrotation Zrotation
									JOINT RightHandThumb2
									{
										OFFSET -3.101337 -1.790558 1.790558
										CHANNELS 3 Xrotation Yrotation Zrotation
										JOINT RightHandThumb3
										{
											OFFSET -3.058640 -1.765907 1.765906
											CHANNELS 3 Xrotation Yrotation Zrotation
											End Site
											{
												OFFSET 0.415260 3.926476 -0.049563
											}
										}
									}
								}
								JOINT RightHandIndex1
								{
									OFFSET -11.334419 -0.901459 3.706815
									CHANNELS 3 Xrotation Yrotation Zrotation
									JOINT RightHandIndex2
									{
										OFFSET -3.283112 0.000000 0.000000
										CHANNELS 3 Xrotation Yrotation Zrotation
										JOINT RightHandIndex3
										{
											OFFSET -3.323853 0.000000 0.000000
											CHANNELS 3 Xrotation Yrotation Zrotation
											End Site
											{
												OFFSET 1.135597 3.097809 0.402452
											}
										}
									}
								}
								JOINT RightHandMiddle1
								{
									OFFSET -11.335861 0.000000 0.000000
									CHANNELS 3 Xrotation Yrotation Zrotation
									JOINT RightHandMiddle2
									{
										OFFSET -3.410492 0.000000 0.000000
										CHANNELS 3 Xrotation Yrotation Zrotation
										JOINT RightHandMiddle3
										{
											OFFSET -3.312172 0.000000 0.000000
											CHANNELS 3 Xrotation Yrotation Zrotation
											End Site
											{
												OFFSET 1.150200 3.080154 0.400270
											}
										}
									}
								}
								JOINT RightHandRing1
								{
									OFFSET -11.514786 -0.013176 -3.003090
									CHANNELS 3 Xrotation Yrotation Zrotation
									JOINT RightHandRing2
									{
										OFFSET -3.053307 0.000000 0.000000
										CHANNELS 3 Xrotation Yrotation Zrotation
										JOINT RightHandRing3
										{
											OFFSET -3.295807 0.000000 0.000000
											CHANNELS 3 Xrotation Yrotation Zrotation
											End Site
											{
												OFFSET 1.281006 3.013344 0.375733
											}
										}
									}
								}
								JOINT RightHandPinky1
								{
									OFFSET -10.518692 -0.960396 -5.730441
									CHANNELS 3 Xrotation Yrotation Zrotation
									JOINT RightHandPinky2
									{
										OFFSET -2.861649 0.000000 0.000000
										CHANNELS 3 Xrotation Yrotation Zrotation
										JOINT RightHandPinky3
										{
											OFFSET -2.863380 0.000000 0.000000
											CHANNELS 3 Xrotation Yrotation Zrotation
											End Site
											{
												OFFSET 0.843597 2.711159 0.369971
											}
										}
									}
								}
							}
							JOINT RSleeve
							{
								OFFSET -6.676277 -0.344902 -1.011730
								CHANNELS 3 Xrotation Yrotation Zrotation
								End Site
								{
									OFFSET 0.000000 14.885353 0.000000
								}
							}
						}
					}
				}
				JOINT Backpack
				{
					OFFSET 0.000000 -2.471497 36.677502
					CHANNELS 3 Xrotation Yrotation Zrotation
					End Site
					{
						OFFSET 0.000000 20.427315 0.000000
					}
				}
				JOINT Hood
				{
					OFFSET 0.000000 18.754097 -10.431000
					CHANNELS 3 Xrotation Yrotation Zrotation
					JOINT Hood1
					{
						OFFSET 0.000000 -5.011002 -7.685901
						CHANNELS 3 Xrotation Yrotation Zrotation
						End Site
						{
							OFFSET 0.000000 9.175140 0.000000
						}
					}
				}
				JOINT LHoodieString
				{
					OFFSET 5.250500 16.397697 3.089900
					CHANNELS 3 Xrotation Yrotation Zrotation
					JOINT LHoodieString1
					{
						OFFSET 0.257700 -6.364304 3.694600
						CHANNELS 3 Xrotation Yrotation Zrotation
						JOINT LHoodieString2
						{
							OFFSET 0.000000 -9.643799 2.679100
							CHANNELS 3 Xrotation Yrotation Zrotation
							End Site
							{
								OFFSET 0.000000 10.009018 0.000000
							}
						}
					}
				}
				JOINT RHoodieString
				{
					OFFSET -5.250500 16.397697 3.089900
					CHANNELS 3 Xrotation Yrotation Zrotation
					JOINT RHoodieString1
					{
						OFFSET -0.257700 -6.364304 3.694600
						CHANNELS 3 Xrotation Yrotation Zrotation
						JOINT RHoodieString2
						{
							OFFSET 0.000000 -9.643799 2.679100
							CHANNELS 3 Xrotation Yrotation Zrotation
							End Site
							{
								OFFSET 0.000000 10.009018 0.000000
							}
						}
					}
				}
			}
			JOINT LBackpack_Strap
			{
				OFFSET 15.223200 -7.719803 -6.610900
				CHANNELS 3 Xrotation Yrotation Zrotation
				End Site
				{
					OFFSET 0.000000 16.040596 0.000000
				}
			}
			JOINT RBackpack_Strap
			{
				OFFSET -15.223000 -7.719803 -6.610900
				CHANNELS 3 Xrotation Yrotation Zrotation
				End Site
				{
					OFFSET 0.000000 16.040596 0.000000
				}
			}
		}
	}
	JOINT BoyFacialAnim_Joint
	{
		OFFSET 1.000000 -82.208099 -1.550900
		CHANNELS 3 Xrotation Yrotation Zrotation
		End Site
		{
			OFFSET 0.000000 30.012791 0.000000
		}
	}
}
MOTION
Frames: 4
Frame Time: 0.033333
-0.802761 50.434082 0.368927 -18.060258 -5.341474 -5.750245 0.000001 -0.000000 -0.000000 -76.346734 0.409020 12.685146 95.429552 9.499107 0.519856 -2.962242 3.134247 7.309764 0.000000 -0.000002 0.000000 0.000000 -0.000002 0.000000 0.000000 -0.000001 0.000000 -72.423201 -2.099081 -6.512873 45.073156 -0.415278 -0.106717 43.908564 4.584290 13.312258 -0.000000 -0.000001 -0.000001 -0.000000 -0.000001 -0.000001 0.000000 -0.000001 -0.000000 5.987046 1.452704 1.955456 10.720751 0.586488 2.402823 10.706152 0.643693 2.447338 -4.085092 0.690326 -0.715833 -12.557258 1.524185 3.744503 -0.000000 0.000000 -0.000000 -0.000000 0.000000 -0.000000 -0.000000 0.000000 -0.000000 1.244632 0.076113 -10.790654 -32.097156 -41.849006 -48.693935 0.000482 -81.974161 0.000477 -1.052477 0.742458 26.301409 18.241642 -23.305372 -17.628923 53.671695 63.248446 -40.439446 0.000001 0.000000 -0.000000 6.090365 6.835817 -83.384732 5.535333 6.748920 -78.694550 -0.000000 -0.000000 -0.000002 6.088421 6.835608 -83.368538 5.537252 6.749296 -78.710758 0.000001 -0.000001 -0.000003 6.090342 6.835789 -83.384718 5.535325 6.748930 -78.694544 0.000001 0.000001 -0.000000 10.148466 7.303414 -83.373981 5.544908 2.664306 -78.811326 -0.000003 -0.000003 -0.000002 -0.000002 -0.000003 -0.000001 3.349715 13.625684 10.892349 -22.863298 27.056116 21.646121 0.000044 82.839587 -0.000027 -6.499982 4.025276 -30.044943 7.564644 7.028709 27.703742 -9.818516 -72.226635 -19.707240 -0.000001 0.000003 0.000003 6.036432 -6.888449 82.440957 4.121023 -6.349615 65.937847 -0.000004 0.000002 0.000002 6.036417 -6.888443 82.440950 4.121024 -6.349603 65.937854 0.000004 -0.000001 0.000001 6.036403 -6.888426 82.440984 4.121026 -6.349619 65.937847 -0.000000 -0.000003 -0.000000 6.036408 -6.888414 82.440964 4.121038 -6.349631 65.937840 -0.000001 -0.000003 -0.000000 -0.000002 -0.000002 0.000001 -0.000000 0.000000 -0.000000 -0.000000 0.000000 -0.000000 -0.000000 0.000000 -0.000000 -0.000000 0.000000 -0.000000 -0.000000 0.000000 -0.000000 -0.000000 0.000000 -0.000000 -0.000000 0.000000 -0.000000 -0.000000 0.000000 -0.000000 -0.000000 0.000000 -0.000000 -0.000000 -0.000000 -0.000000 -0.000000 -0.000000 -0.000000 0.000001 -0.000000 -0.000000 
-0.799955 50.434135 0.362570 -18.110708 -5.382007 -5.758287 0.000001 -0.000000 0.000000 -76.292168 0.403718 12.718161 95.433671 9.495335 0.520509 -2.959736 3.148213 7.266689 -0.000000 0.000001 0.000000 -0.000000 0.000001 0.000000 -0.000000 -0.000002 -0.000000 -72.514664 -2.081417 -6.498273 45.306274 -0.280976 -0.100509 43.762402 4.595907 13.429474 0.000000 -0.000001 -0.000000 0.000000 -0.000001 -0.000000 0.000001 0.000001 0.000001 6.050025 1.477659 1.942420 10.822060 0.594206 2.334442 10.807171 0.654108 2.380853 -4.046270 0.652768 -0.655028 -12.367490 1.436462 3.675522 -0.000000 0.000000 0.000000 -0.000000 0.000000 0.000000 -0.000000 0.000000 0.000000 1.244136 0.055943 -10.733867 -32.274481 -41.601641 -48.833028 -0.000524 -82.002418 -0.000534 -1.074974 0.515488 26.642618 18.241647 -23.305370 -17.628921 53.671708 63.248446 -40.439453 0.000001 0.000001 0.000000 6.090369 6.835816 -83.384732 5.535337 6.748921 -78.694557 -0.000001 -0.000001 -0.000004 6.088422 6.835605 -83.368538 5.537249 6.749295 -78.710758 0.000003 -0.000001 -0.000002 6.090345 6.835794 -83.384725 5.535326 6.748930 -78.694544 0.000002 -0.000001 -0.000004 10.148462 7.303416 -83.373975 5.544906 2.664311 -78.811319 0.000001 -0.000001 0.000001 -0.000003 -0.000001 -0.000002 3.352721 13.641142 10.883756 -22.794682 26.980646 21.571233 0.000146 83.200843 -0.000160 -6.790066 4.325794 -29.383354 7.564637 7.028706 27.703739 -9.818523 -72.226635 -19.707244 -0.000000 0.000005 0.000003 6.036431 -6.888449 82.440957 4.121020 -6.349606 65.937847 0.000003 -0.000000 0.000002 6.036408 -6.888446 82.440957 4.121022 -6.349606 65.937847 0.000000 0.000001 0.000002 6.036402 -6.888428 82.440978 4.121026 -6.349619 65.937847 0.000001 -0.000002 0.000000 6.036405 -6.888419 82.440964 4.121036 -6.349635 65.937840 -0.000001 -0.000001 0.000002 -0.000001 -0.000001 -0.000001 0.000001 -0.000000 0.000000 0.000001 -0.000000 0.000000 0.000001 -0.000000 0.000000 0.000001 -0.000000 0.000000 0.000001 -0.000000 0.000000 -0.000000 0.000000 0.000000 0.000001 -0.000000 0.000000 0.000001 -0.000000 0.000000 -0.000000 0.000000 0.000000 -0.000000 -0.000000 -0.000000 -0.000000 -0.000000 -0.000000 0.000001 -0.000000 0.000000 
-0.796631 50.433960 0.355825 -18.155934 -5.421227 -5.766673 0.000002 0.000000 -0.000000 -76.243838 0.397008 12.748006 95.437379 9.491712 0.521174 -2.955633 3.164331 7.224621 0.000000 0.000000 -0.000000 0.000000 0.000000 0.000000 0.000000 0.000000 -0.000000 -72.607459 -2.064225 -6.485317 45.532493 -0.146692 -0.094331 43.614723 4.609965 13.553555 0.000000 0.000000 -0.000000 0.000000 0.000000 -0.000000 -0.000002 0.000001 0.000000 6.109670 1.503083 1.929352 10.920124 0.602347 2.267259 10.904984 0.664931 2.315405 -4.005068 0.618067 -0.599460 -12.188772 1.354065 3.613320 0.000000 -0.000000 -0.000000 0.000000 -0.000000 -0.000000 0.000000 -0.000000 -0.000000 1.243817 0.037370 -10.671757 -32.445960 -41.340475 -48.971623 0.000409 -82.037798 0.000438 -1.118399 0.323287 26.969453 18.241646 -23.305372 -17.628923 53.671691 63.248446 -40.439446 0.000001 0.000001 0.000001 6.090373 6.835816 -83.384732 5.535336 6.748924 -78.694557 -0.000001 0.000000 0.000002 6.088423 6.835602 -83.368538 5.537252 6.749291 -78.710752 -0.000003 -0.000004 -0.000006 6.090347 6.835789 -83.384725 5.535327 6.748936 -78.694544 -0.000003 0.000000 -0.000000 10.148467 7.303416 -83.373975 5.544910 2.664307 -78.811319 0.000002 0.000000 0.000002 0.000003 -0.000001 -0.000001 3.355712 13.656663 10.875165 -22.724753 26.924343 21.491742 0.000271 83.562658 -0.000272 -7.051626 4.615372 -28.790477 7.564639 7.028709 27.703736 -9.818494 -72.226628 -19.707240 0.000001 -0.000002 -0.000001 6.036428 -6.888451 82.440957 4.121018 -6.349606 65.937840 -0.000004 -0.000002 0.000002 6.036406 -6.888443 82.440957 4.121021 -6.349610 65.937847 0.000004 0.000000 -0.000000 6.036401 -6.888425 82.440978 4.121027 -6.349615 65.937847 -0.000002 -0.000001 0.000005 6.036398 -6.888418 82.440971 4.121041 -6.349633 65.937840 -0.000002 -0.000004 0.000001 0.000000 -0.000001 -0.000002 0.000001 0.000000 -0.000000 0.000001 0.000000 -0.000000 0.000001 0.000000 -0.000000 0.000001 0.000000 -0.000000 0.000001 0.000000 -0.000000 0.000000 -0.000000 -0.000000 0.000001 0.000000 -0.000000 0.000001 0.000000 -0.000000 0.000000 -0.000000 -0.000000 -0.000000 0.000000 -0.000000 -0.000000 0.000000 -0.000000 0.000002 0.000000 -0.000000 
-0.793080 50.433899 0.350119 -18.193829 -5.457361 -5.775858 -0.000001 -0.000000 0.000000 -76.202774 0.388521 12.773817 95.440467 9.488465 0.521863 -2.953356 3.180514 7.186727 0.000000 0.000000 0.000000 0.000000 0.000000 0.000000 -0.000000 0.000000 -0.000000 -72.706612 -2.050374 -6.475233 45.759515 -0.014949 -0.088193 43.462399 4.623168 13.671327 0.000000 0.000000 -0.000000 0.000000 0.000000 -0.000000 0.000000 0.000000 0.000001 6.166364 1.528740 1.913358 11.012930 0.610712 2.199355 10.997598 0.676324 2.249060 -3.958863 0.585645 -0.546103 -12.030048 1.277033 3.560952 -0.000000 0.000000 0.000000 -0.000000 0.000000 0.000000 -0.000000 0.000000 0.000000 1.243417 0.023316 -10.622315 -32.603355 -41.096555 -49.092446 -0.000186 -82.049478 -0.000142 -1.080537 0.091398 27.347540 18.241647 -23.305365 -17.628927 53.671705 63.248446 -40.439446 -0.000000 0.000003 0.000000 6.090365 6.835819 -83.384732 5.535334 6.748919 -78.694550 -0.000004 0.000001 -0.000003 6.088415 6.835613 -83.368538 5.537250 6.749293 -78.710752 0.000001 -0.000000 0.000000 6.090344 6.835799 -83.384725 5.535331 6.748930 -78.694537 0.000000 -0.000003 -0.000004 10.148462 7.303421 -83.373981 5.544911 2.664304 -78.811319 0.000000 -0.000000 0.000001 0.000004 -0.000001 0.000001 3.358706 13.672197 10.866585 -22.649493 26.881873 21.412182 0.000520 83.917371 -0.000491 -7.212242 4.905539 -28.331601 7.564642 7.028705 27.703742 -9.818511 -72.226635 -19.707246 -0.000003 -0.000000 -0.000001 6.036431 -6.888452 82.440957 4.121024 -6.349602 65.937840 -0.000000 -0.000001 -0.000000 6.036410 -6.888446 82.440950 4.121026 -6.349614 65.937847 0.000002 0.000000 0.000003 6.036406 -6.888425 82.440978 4.121030 -6.349616 65.937854 0.000003 0.000000 -0.000001 6.036405 -6.888417 82.440964 4.121038 -6.349631 65.937840 -0.000002 -0.000001 -0.000003 -0.000001 0.000001 -0.000000 0.000001 0.000000 -0.000000 0.000001 0.000000 -0.000000 0.000001 0.000000 -0.000000 0.000001 0.000000 -0.000000 0.000001 0.000000 -0.000000 0.000000 0.000000 -0.000000 0.000001 0.000000 -0.000000 0.000001 0.000000 -0.000000 0.000000 0.000000 -0.000000 0.000000 -0.000000 -0.000000 0.000000 -0.000000 -0.000000 -0.000001 -0.000000 0.000000 
